<svg width="257" height="24" viewBox="0 0 257 24" fill="none" xmlns="http://www.w3.org/2000/svg">
<path d="M10.272 23.448C5.376 23.448 0.864 20.152 0.864 13.912V13.144L6.336 13.048V13.912C6.336 16.632 8 18.136 10.272 18.136C12.384 18.136 13.92 16.792 13.92 14.392V5.912H4.192V0.599998H19.424V14.392C19.424 19.928 15.36 23.448 10.272 23.448ZM32.9018 23.448C26.5658 23.448 21.8618 18.68 21.8618 11.832V11.768C21.8618 4.92 26.5658 0.151999 32.9018 0.151999C39.2378 0.151999 43.9098 4.92 43.9098 11.768V11.832C43.9098 18.68 39.2378 23.448 32.9018 23.448ZM32.9018 17.944C36.0378 17.944 38.2778 15.48 38.2778 11.832V11.736C38.2778 8.12 36.0378 5.656 32.9018 5.656C29.7338 5.656 27.4938 8.12 27.4938 11.736V11.832C27.4938 15.448 29.7338 17.944 32.9018 17.944ZM60.4955 23H46.0315V17.688H50.5115V5.912H46.0315V0.599998H60.4955V5.912H56.0155V17.688H60.4955V23ZM69.0765 23H63.8285V0.599998H70.7725L78.4845 14.168H79.4445V0.599998H84.7245V23H77.7485L70.0365 9.432H69.0765V23ZM105.181 23H104.221V1.56H95.5813V0.599998H113.821V1.56H105.181V23ZM117.985 23H117.025V0.599998H117.985V11.32H133.985V0.599998H134.945V23H133.985V12.28H117.985V23ZM155.006 23H139.806V0.599998H155.006V1.56H140.766V11.32H153.534V12.28H140.766V22.04H155.006V23ZM172.176 23H166.672V0.599998H183.312V5.848H172.176V9.688H181.84V13.944H172.176V23ZM202.812 23H186.172V0.599998H191.676V17.688H202.812V23ZM215.371 23.448C209.035 23.448 204.331 18.68 204.331 11.832V11.768C204.331 4.92 209.035 0.151999 215.371 0.151999C221.707 0.151999 226.379 4.92 226.379 11.768V11.832C226.379 18.68 221.707 23.448 215.371 23.448ZM215.371 17.944C218.507 17.944 220.747 15.48 220.747 11.832V11.736C220.747 8.12 218.507 5.656 215.371 5.656C212.203 5.656 209.963 8.12 209.963 11.736V11.832C209.963 15.448 212.203 17.944 215.371 17.944ZM239.796 23H231.924L227.732 1.08V0.599998H233.364L235.86 15.64H236.948L239.668 0.599998H244.756L247.444 15.64H248.5L251.028 0.599998H256.692V1.08L252.468 23H244.596L242.612 11.096H241.78L239.796 23Z" fill="#1D1D1D"/>
</svg>
